<?xml version="1.0" encoding="UTF-8" standalone="no"?>
<svg
   xmlns:dc="http://purl.org/dc/elements/1.1/"
   xmlns:cc="http://creativecommons.org/ns#"
   xmlns:rdf="http://www.w3.org/1999/02/22-rdf-syntax-ns#"
   xmlns:svg="http://www.w3.org/2000/svg"
   xmlns="http://www.w3.org/2000/svg"
   xmlns:sodipodi="http://sodipodi.sourceforge.net/DTD/sodipodi-0.dtd"
   xmlns:inkscape="http://www.inkscape.org/namespaces/inkscape"
   width="72"
   height="72"
   viewBox="0 0 57.6 57.6"
   id="svg10955"
   version="1.1"
   inkscape:version="0.47 r22583"
   sodipodi:docname="background.svg">
  <metadata
     id="metadata18994">
    <rdf:RDF>
      <cc:Work
         rdf:about="">
        <dc:format>image/svg+xml</dc:format>
        <dc:type
           rdf:resource="http://purl.org/dc/dcmitype/StillImage" />
        <dc:title></dc:title>
      </cc:Work>
    </rdf:RDF>
  </metadata>
  <defs
     id="defs18992" />
  <sodipodi:namedview
     pagecolor="#01040b"
     bordercolor="#666666"
     borderopacity="1"
     objecttolerance="10"
     gridtolerance="10"
     guidetolerance="10"
     inkscape:pageopacity="1"
     inkscape:pageshadow="2"
     inkscape:window-width="1680"
     inkscape:window-height="957"
     id="namedview18990"
     showgrid="false"
     inkscape:zoom="6.9325758"
     inkscape:cx="43.993907"
     inkscape:cy="31.892063"
     inkscape:window-x="-5"
     inkscape:window-y="36"
     inkscape:window-maximized="1"
     inkscape:current-layer="svg10955" />
  <g
     transform="translate(-10.31044,-171.20287)"
     style="fill:none;stroke:#b2b2b2;stroke-width:0.21600001;stroke-linecap:butt;stroke-linejoin:miter;stroke-dasharray:none"
     id="g10957" />
  <g
     transform="matrix(0.24793395,0,0,0.24793395,1.7556127,1.6072039)"
     style="fill:#000000;fill-rule:evenodd;stroke:none"
     id="g13715">
    <path
       d="m 116.121,8.6944 c 2.976,5.959 4.09,7.7646 5.129,14.5996 0.502,3.3096 1.198,6.7041 1.063,10.0713 0,0 -0.439,3.8164 -0.439,3.8164 0,0 -2.189,6.3174 -2.189,6.3174 -1.612,4.1738 -4.153,7.1445 -3.504,11.6953 0,0 1.25,-0.5615 1.25,-0.5615 0,0 1.001,-1.751 1.001,-1.751 3.525,-10.1348 7.595,-20.1992 20.644,-20.1426 3.726,0.0166 5.36,2.2031 9.07,0.8145 0.316,4.5673 -1.755,5.4746 -3.174,9.2959 0,0 -0.241,0.6621 -0.241,0.6621 11.152,2.2353 17.701,12.3945 11.92,22.9326 -5.023,-2.9063 -10.586,-3.4141 -15.712,-6.4551 0,0 -1.504,-0.9062 -1.504,-0.9062 -3.384,-2.3438 -5.091,-3.7901 -9.571,-3.379 -3.262,0.2979 -7.455,2.1827 -10.596,3.379 -0.812,0.3095 -1.688,0.7978 -1.986,1.6884 -0.181,0.5469 -0.215,3.211 0.062,4.045 0,0 0.24,0.7236 0.24,0.7236 1.088,-1.0928 1.594,-1.4424 2.891,-2.293 1.472,-0.9707 3.106,-2.1738 4.874,-2.5361 3.338,-0.6787 6.662,0.5068 9.269,2.6572 0.969,1.085 2.326,2.0039 3.132,3.1358 -5.196,4.8388 -3.298,2.4843 -8.125,4.8906 -0.756,0.374 -0.824,0.5498 -1.207,1.2676 0,0 0.302,0.3603 0.302,0.3603 1.715,0.0869 1.513,0.2236 3.07,1.209 1.988,1.2568 2.186,1.2773 3.432,3.3779 0,0 1.804,3.501 1.804,3.501 0.25,0.8193 0.463,3.667 0,4.4065 -0.728,1.159 -9.479,1.345 -11.073,1.205 -4.719,-0.411 -1.524,-1.5695 -6.2,-1.5695 -0.351,2.1055 3.292,8.3715 4.214,10.5615 1.934,4.6081 1.671,2.251 1.986,8.5701 0,0 0.057,10.5 0.057,10.5 0,0 0.364,0.724 0.364,0.724 3.699,-3.711 6.428,-6.481 12.028,-6.981 4.548,-0.409 9.28,-0.794 12.141,2.283 -0.923,3.813 -1.028,4.925 -2.828,8.508 -7.658,15.238 -12.953,12.474 -16.902,18.745 1.673,0.374 6.692,-5.654 17.18,0.416 0.463,0.268 3.213,2.078 3.45,2.49 0.56,3.846 -0.336,5.525 -2.693,8.783 -3.223,4.453 -1.928,2.663 -5.52,5.605 -3.311,2.851 -2.038,1.897 -5.657,4.565 -0.982,0.755 -1.707,1.011 -2.277,2.101 8.196,0.585 8.899,0.041 13.868,4.747 -0.335,2.023 -0.454,3.064 -1.586,4.909 -3.259,5.31 -11.375,8.977 -13.59,13.973 4.229,0.5 12.495,-0.972 15.244,6.156 2.09,5.413 -4.657,10.549 -9.52,10.792 -2.621,0.132 -5.84,-0.754 -6.07,-3.734 2.004,0.125 3.876,0.283 5.449,-1.039 2.515,-2.113 2.522,-5.773 -1.31,-6.711 -9.252,-2.258 -17.176,16.049 -1.725,18.607 4.369,0.723 8.656,0.056 12.627,-1.865 3.887,-1.887 5.625,-5.157 6.759,-8.787 0.258,-1.146 0.304,-6.151 0.208,-7.399 -0.261,-3.37 -1.274,-6.47 -2.414,-9.618 -2.134,-5.881 -2.244,-6.98 -2.278,-13.07 -0.018,-3.49 0.462,-6.234 1.519,-9.409 17.514,1.283 26.922,7.269 27.803,23.451 4.085,-5.614 3.761,-17.619 -0.551,-23.312 -2.765,-3.656 -7.011,-6.109 -11.038,-8.094 -3.06,-1.641 -9.758,-5.804 -12.349,-7.884 -4.291,-5.872 -8.149,-10.636 -6.073,-18.538 0,0 1.863,-1.662 1.863,-1.662 8.285,-3.747 10.789,-1.036 18.904,0.622 0.574,0.119 1.344,-0.071 1.931,-0.136 -5.319,-5.853 -9.005,-11.147 -16.696,-13.836 -7,-2.446 -15.97,-0.984 -25.252,-8.577 0,0 2.208,-2.1441 2.208,-2.1441 11.761,-8.763 14.975,-6.821 27.046,-1.729 0,0 -0.483,-1.382 -0.483,-1.382 0,0 -1.795,-2.076 -1.795,-2.076 -11.597,-6.25 -16.674,-17.1402 -14.765,-30.1597 9.998,3.2588 21.615,3.9785 27.462,14.041 0,0 1.448,3.1836 1.448,3.1836 0,0 0.966,2.8369 0.966,2.8369 0,0 0.549,0.4151 0.549,0.4151 0,-3.5147 -0.333,-3.001 -0.619,-5.8106 -0.171,-1.7109 -0.284,-7.1826 -0.137,-8.7861 0,0 0.898,-4.3594 0.898,-4.3594 0,0 2.208,-4.2168 2.208,-4.2168 0,0 0.689,-0.4873 0.689,-0.4873 3.297,7.5186 9.666,12.3516 11.522,20.6846 0,0 0.691,4.9107 0.691,4.9107 7.288,-6.4996 10.699,-10.6148 21.454,-12.1744 1.512,-0.2187 3.037,-0.1924 4.554,-0.1387 0.251,2.0118 -2.277,5.7481 -3.105,7.5401 -1.226,2.6562 -3.603,9.437 -4.554,12.382 0,0 -1.102,3.527 -1.102,3.527 0,0 -1.313,3.1831 -1.313,3.1831 0,0 -0.62,5.74 -0.62,5.74 0,0 0.139,5.189 0.139,5.189 0,0 0.068,8.162 0.068,8.162 0,0 1.313,9.476 1.313,9.476 0,0 0.759,5.466 0.759,5.466 5.327,0.111 7.313,0.482 11.658,3.387 -1.618,3.897 -4.252,6.469 -5.725,10.721 -0.187,1.162 0.292,5.201 -0.069,7.749 -2.783,19.49 -13.196,33.708 -29.255,45.168 -10.675,5.619 -22.796,14.329 -34.771,16.741 -1.837,0.37 -9.317,0.793 -11.317,0.692 -2.663,-0.138 -8.001,-1.663 -10.211,-3.114 -1.657,-1.09 -4.363,-3.872 -5.448,-5.532 -0.576,-0.879 -2.219,-4.245 -2.485,-5.191 -0.479,-1.693 -0.307,-4.481 -0.139,-6.225 0.37,-3.792 0.589,-2.819 1.38,-5.602 -5.346,4.859 -7.169,10.957 -11.038,16.878 -3.868,-5.921 -5.693,-12.019 -11.041,-16.878 0.794,2.783 1.013,1.81 1.381,5.602 0.17,1.744 0.339,4.532 -0.137,6.225 -0.266,0.946 -1.908,4.312 -2.483,5.191 -1.089,1.66 -3.792,4.442 -5.453,5.532 -2.207,1.451 -7.548,2.976 -10.209,3.114 -2.002,0.101 -9.478,-0.322 -11.316,-0.692 C 57.848,216.236 45.724,207.526 35.048,201.907 18.992,190.447 8.579,176.229 5.797,156.739 5.431,154.191 5.915,150.152 5.727,148.99 4.251,144.738 1.622,142.166 0,138.269 c 4.347,-2.905 6.334,-3.276 11.66,-3.387 0,0 0.76,-5.466 0.76,-5.466 0,0 1.309,-9.476 1.309,-9.476 0,0 0.071,-8.162 0.071,-8.162 0,0 0.138,-5.189 0.138,-5.189 0,0 -0.623,-5.74 -0.623,-5.74 0,0 -1.311,-3.1831 -1.311,-3.1831 0,0 -1.103,-3.527 -1.103,-3.527 C 9.95,91.1939 7.573,84.4131 6.346,81.7569 5.521,79.9649 2.994,76.2286 3.242,74.2168 c 1.521,-0.0537 3.046,-0.08 4.556,0.1387 10.753,1.5596 14.164,5.6748 21.457,12.1744 0,0 0.689,-4.9107 0.689,-4.9107 1.851,-8.333 8.226,-13.166 11.522,-20.6846 0,0 0.689,0.4873 0.689,0.4873 0,0 2.209,4.2168 2.209,4.2168 0,0 0.897,4.3594 0.897,4.3594 0.146,1.6035 0.034,7.0752 -0.137,8.7861 -0.286,2.8096 -0.623,2.2959 -0.623,5.8106 0,0 0.552,-0.4151 0.552,-0.4151 0,0 0.967,-2.8369 0.967,-2.8369 0,0 1.45,-3.1836 1.45,-3.1836 5.845,-10.0625 17.459,-10.7822 27.457,-14.041 1.909,13.0195 -3.166,23.9097 -14.762,30.1597 0,0 -1.794,2.076 -1.794,2.076 0,0 -0.484,1.382 -0.484,1.382 12.07,-5.092 15.282,-7.034 27.046,1.729 0,0 2.205,2.1441 2.205,2.1441 -9.278,7.593 -18.25,6.131 -25.249,8.577 -7.691,2.689 -11.38,7.983 -16.698,13.836 0.59,0.065 1.36,0.255 1.933,0.136 8.115,-1.658 10.616,-4.369 18.903,-0.622 0,0 1.862,1.662 1.862,1.662 2.077,7.902 -1.778,12.666 -6.069,18.538 -2.595,2.08 -9.291,6.243 -12.351,7.884 -4.028,1.985 -8.272,4.438 -11.038,8.094 -4.312,5.693 -4.638,17.698 -0.553,23.312 0.879,-16.182 10.29,-22.168 27.805,-23.451 1.053,3.175 1.537,5.919 1.516,9.409 -0.029,6.09 -0.14,7.189 -2.275,13.07 -1.141,3.148 -2.154,6.248 -2.415,9.618 -0.098,1.248 -0.052,6.253 0.206,7.399 1.136,3.63 2.872,6.9 6.762,8.787 3.972,1.921 8.26,2.588 12.626,1.865 15.451,-2.558 7.528,-20.865 -1.724,-18.607 -3.831,0.938 -3.824,4.598 -1.31,6.711 1.571,1.322 3.444,1.164 5.449,1.039 -0.229,2.98 -3.448,3.866 -6.073,3.734 -4.863,-0.243 -11.607,-5.379 -9.518,-10.792 2.747,-7.128 11.013,-5.656 15.246,-6.156 -2.216,-4.996 -10.331,-8.663 -13.591,-13.973 -1.135,-1.845 -1.253,-2.886 -1.589,-4.909 4.97,-4.706 5.675,-4.162 13.871,-4.747 -0.569,-1.09 -1.294,-1.346 -2.28,-2.101 -3.615,-2.668 -2.342,-1.714 -5.657,-4.565 -3.589,-2.942 -2.297,-1.152 -5.521,-5.605 -2.353,-3.258 -3.251,-4.937 -2.688,-8.783 0.236,-0.412 2.986,-2.222 3.45,-2.49 10.487,-6.07 15.504,-0.042 17.179,-0.416 -3.95,-6.271 -9.249,-3.507 -16.905,-18.745 -1.799,-3.583 -1.904,-4.695 -2.828,-8.508 2.863,-3.077 7.597,-2.692 12.144,-2.283 5.601,0.5 8.326,3.27 12.029,6.981 0,0 0.358,-0.724 0.358,-0.724 0,0 0.064,-10.5 0.064,-10.5 0.312,-6.3191 0.047,-3.962 1.986,-8.5701 0.921,-2.19 4.562,-8.456 4.213,-10.5615 -4.676,0 -1.484,1.1585 -6.199,1.5695 -1.598,0.14 -10.347,-0.046 -11.077,-1.205 -0.465,-0.7395 -0.248,-3.5872 0,-4.4065 0,0 1.806,-3.501 1.806,-3.501 1.242,-2.1006 1.44,-2.1211 3.431,-3.3779 1.558,-0.9854 1.354,-1.1221 3.071,-1.209 0,0 0.298,-0.3603 0.298,-0.3603 -0.381,-0.7178 -0.448,-0.8936 -1.202,-1.2676 -4.828,-2.4063 -2.934,-0.0518 -8.125,-4.8906 0.805,-1.1319 2.16,-2.0508 3.127,-3.1358 2.609,-2.1504 5.931,-3.3359 9.272,-2.6572 1.77,0.3623 3.402,1.5654 4.874,2.5361 1.297,0.8506 1.801,1.2002 2.892,2.293 0,0 0.239,-0.7236 0.239,-0.7236 0.276,-0.834 0.241,-3.4981 0.059,-4.045 -0.292,-0.8906 -1.168,-1.3789 -1.984,-1.6884 -3.142,-1.1963 -7.333,-3.0811 -10.593,-3.379 -4.48,-0.4111 -6.187,1.0352 -9.572,3.379 0,0 -1.507,0.9062 -1.507,0.9062 -5.126,3.041 -10.686,3.5488 -15.708,6.4551 -5.782,-10.5381 0.769,-20.6973 11.916,-22.9326 0,0 -0.241,-0.6621 -0.241,-0.6621 -1.416,-3.8213 -3.487,-4.7286 -3.172,-9.2959 3.71,1.3886 5.346,-0.7979 9.07,-0.8145 13.051,-0.0566 17.117,10.0078 20.641,20.1426 0,0 1.002,1.751 1.002,1.751 0,0 1.249,0.5615 1.249,0.5615 0.651,-4.5508 -1.886,-7.5215 -3.501,-11.6953 0,0 -2.191,-6.3174 -2.191,-6.3174 0,0 -0.436,-3.8164 -0.436,-3.8164 -0.136,-3.3672 0.561,-6.7617 1.063,-10.0713 1.039,-6.835 2.152,-8.6406 5.129,-14.5996 1.984,-3.1143 4.071,-5.9736 6.578,-8.3975 0,0 0.453,-0.2969 0.453,-0.2969 0,0 0.467,0.2969 0.467,0.2969 2.509,2.4239 4.6,5.2832 6.584,8.3975 z"
       id="path13717" />
  </g>
  <g
     transform="matrix(0.24793395,0,0,0.24793395,23.737685,29.863718)"
     style="fill:#0e1d39;fill-opacity:1;fill-rule:evenodd;stroke:none"
     id="g13719">
    <path
       d="m 20.221,71.662 c 0,0 1.801,-2.219 1.801,-2.219 4.571,-5.537 14.049,-14.02 14.049,-21.838 -1.608,-0.014 -3.18,-0.047 -4.783,0.091 -0.674,0.05 -1.346,0.101 -2.02,0.154 -0.119,0 -0.242,0 -0.365,0 -0.123,-0.013 -0.246,-0.022 -0.367,-0.031 0.427,-0.829 0.855,-1.657 1.283,-2.483 1.16,-2.627 2.012,-5.345 3.097,-7.996 3.433,-3.836 6.15,-6.556 6.768,-12.119 0,0 -0.11,-0.873 -0.11,-0.873 -4.959,0 -6.484,1.629 -10.369,4.475 0.959,-2.492 1.731,-4.385 3.275,-6.55 3.017,-4.953 2.45,-10.278 2.512,-15.934 -4.433,0 -6.826,2.186 -8.626,5.784 0,0 -0.654,-0.654 -0.654,-0.654 0,-3.829 -2.933,-7.332 -5.105,-10.251 0,0 -0.763,-1.218 -0.763,-1.218 0,0 -0.764,1.218 -0.764,1.218 -2.174,2.919 -5.109,6.422 -5.109,10.251 0,0 -0.654,0.654 -0.654,0.654 C 11.517,8.525 9.129,6.339 4.695,6.339 4.756,11.995 4.19,17.32 7.206,22.273 c 1.546,2.165 2.314,4.058 3.272,6.55 -3.879,-2.846 -5.406,-4.475 -10.369,-4.475 0,0 -0.109,0.873 -0.109,0.873 0.617,5.563 3.335,8.283 6.768,12.119 1.085,2.651 1.939,5.369 3.097,7.996 0.428,0.826 0.856,1.654 1.285,2.483 -0.124,0.009 -0.247,0.018 -0.368,0.031 -0.12,0 -0.243,0 -0.367,0 C 9.745,47.797 9.069,47.746 8.398,47.696 6.797,47.558 5.224,47.591 3.615,47.605 c 0,7.818 9.475,16.301 14.049,21.838 0,0 1.804,2.219 1.804,2.219 0,0 0.335,0.507 0.335,0.507 0,0 0.418,-0.507 0.418,-0.507 z"
       id="path13721"
       style="fill:#080c13;fill-opacity:1" />
  </g>
  <g
     transform="matrix(0.24793395,0,0,0.24793395,33.009177,11.041066)"
     style="fill:#080c13;fill-opacity:1;fill-rule:evenodd;stroke:none"
     id="g13723">
    <path
       d="M 15.572,11.9335 C 15.717,9.5459 14.236,8.4482 11.794,8.0712 12.809,7.0576 16.742,5.6982 16.972,4.6601 10.757,0 1.606,5.4267 0,12.3867 2.362,12.0429 12.618,7.6054 15.572,11.9335 z"
       id="path13725"
       style="fill:#080c13;fill-opacity:1" />
  </g>
  <g
     transform="matrix(0.24793395,0,0,0.24793395,46.018767,27.399255)"
     style="fill:#080c13;fill-opacity:1;fill-rule:evenodd;stroke:none"
     id="g13727">
    <path
       d="M 4.673,0 C 12.477,12.255 28.351,44.876 14.066,61.944 13.77,52.708 13.467,40.684 11.206,31.587 8.984,24.157 0,7.343 4.673,0 z"
       id="path13729"
       style="fill:#080c13;fill-opacity:1" />
  </g>
  <g
     transform="matrix(0.24793395,0,0,0.24793395,20.431486,11.041066)"
     style="fill:#080c13;fill-rule:evenodd;stroke:none;fill-opacity:1"
     id="g13731">
    <path
       d="M 1.395,11.9335 C 1.251,9.5459 2.732,8.4482 5.176,8.0712 4.16,7.0576 0.229,5.6982 0,4.6601 6.213,0 15.361,5.4267 16.968,12.3867 14.61,12.0429 4.352,7.6054 1.395,11.9335 z"
       id="path13733"
       style="fill:#080c13;fill-opacity:1" />
  </g>
  <g
     transform="matrix(0.24793395,0,0,0.24793395,4.9170187,27.399255)"
     style="fill:#080c13;fill-opacity:1;fill-rule:evenodd;stroke:none"
     id="g13735">
    <path
       d="M 23.677,0 C 15.874,12.255 0,44.876 14.285,61.944 14.581,52.708 14.886,40.684 17.145,31.587 19.365,24.157 28.35,7.343 23.677,0 z"
       id="path13737"
       style="fill:#080c13;fill-opacity:1" />
  </g>
</svg>
